#!OML:ASF F:\VICON\USERDATA\INSTALL\rory3\rory3.ASF
:FULLY-SPECIFIED
:DEGREES
93
root 0.514897 17.9356 -12.2901 -0.438376 -4.39192 -6.33678
lowerback 9.84953 2.11455 6.46839
upperback -0.179205 3.67308 2.00196
thorax -5.44754 1.65572 -2.05191
lowerneck -15.0963 -3.49329 -1.21223
upperneck 23.0312 -4.50548 -0.330019
head 9.81614 -2.22947 -0.488619
rclavicle 4.76835e-014 4.29375e-014
rhumerus -19.4373 -10.4688 -81.1534
rradius 31.3381
rwrist -0.832462
rhand -20.2979 22.3971
rfingers 7.12502
rthumb 6.05225 -7.4965
lclavicle 4.76835e-014 4.29375e-014
lhumerus -37.5619 10.2613 79.8849
lradius 19.5662
lwrist -0.124534
lhand -26.2026 18.7047
lfingers 7.12502
lthumb 0.350046 48.6842
rfemur 10.5452 7.03324 32.6612
rtibia 25.3285
rfoot -16.0762 -4.14292
rtoes -6.32488
lfemur -25.8032 -2.62231 -12.6145
ltibia 18.6632
lfoot 3.974 -4.69011
ltoes -17.9215
94
root 0.535444 17.9364 -12.0871 -0.49904 -4.40649 -6.27257
lowerback 9.82799 2.12547 6.53202
upperback -0.225191 3.68996 1.89977
thorax -5.47194 1.65923 -2.19633
lowerneck -15.0439 -3.5304 -1.18608
upperneck 23.1349 -4.58492 -0.258436
head 9.84463 -2.25543 -0.478686
rclavicle -3.48556e-014 -9.44227e-015
rhumerus -19.6388 -10.6879 -81.1882
rradius 31.4308
rwrist -0.929675
rhand -20.2316 22.3789
rfingers 7.12502
rthumb 6.11618 -7.51281
lclavicle -3.48556e-014 -9.44227e-015
lhumerus -37.5442 10.4229 79.6589
lradius 19.2129
lwrist -0.454835
lhand -26.2025 18.4857
lfingers 7.12502
lthumb 0.35021 48.4652
rfemur 10.757 7.02348 32.5033
rtibia 26.1487
rfoot -15.3976 -3.76157
rtoes -7.26021
lfemur -25.7017 -2.51338 -12.9498
ltibia 19.6318
lfoot 3.70672 -5.02911
ltoes -13.4447
95
root 0.552309 17.954 -11.8833 -0.605861 -4.6833 -6.25391
lowerback 9.99298 2.22022 6.55734
upperback -0.264996 3.83006 1.80948
thorax -5.58771 1.72109 -2.33286
lowerneck -15.2967 -3.50793 -0.917722
upperneck 23.2981 -4.61353 -0.297426
head 9.94237 -2.24739 -0.548122
rclavicle -1.9338e-014 -5.26779e-015
rhumerus -19.9274 -10.6327 -81.2623
rradius 31.6476
rwrist -1.25901
rhand -20.1627 22.1981
rfingers 7.12502
rthumb 6.18272 -7.69172
lclavicle -1.9338e-014 -5.26779e-015
lhumerus -37.5401 10.6572 79.3519
lradius 19.0295
lwrist -0.773109
lhand -26.1788 21.2229
lfingers 7.12502
lthumb 0.373102 51.2024
rfemur 11.0097 7.13731 32.3712
rtibia 26.9115
rfoot -14.4993 -3.22693
rtoes -7.71012
lfemur -25.2453 -1.96298 -13.3242
ltibia 20.9372
lfoot 2.5014 -4.98418
ltoes -10.82
96
root 0.57202 17.9626 -11.6653 -0.682854 -4.88256 -6.11785
lowerback 9.74388 2.36781 6.49514
upperback -0.247735 3.99173 1.72186
thorax -5.41265 1.80811 -2.39732
lowerneck -15.114 -3.57534 -0.810273
upperneck 23.2425 -4.73469 -0.307145
head 9.88485 -2.29641 -0.580159
rclavicle 2.9358e-014 -1.97791e-014
rhumerus -20.2912 -10.909 -81.2093
rradius 31.7858
rwrist -1.20677
rhand -20.118 22.2251
rfingers 7.12502
rthumb 6.22587 -7.66339
lclavicle 2.9358e-014 -1.97791e-014
lhumerus -37.7567 10.1527 79.4886
lradius 19.3412
lwrist -0.305081
lhand -25.9042 22.6778
lfingers 7.12502
lthumb 0.638299 52.6566
rfemur 11.0969 7.00977 32.0139
rtibia 28.0007
rfoot -13.6674 -2.55577
rtoes -8.49224
lfemur -24.7926 -1.50793 -13.8303
ltibia 22.193
lfoot 0.985562 -4.52712
ltoes -12.3172
97
root 0.596434 17.9643 -11.4494 -0.839338 -4.85592 -5.81652
lowerback 9.47755 2.36695 6.26856
upperback -0.156722 3.93549 1.67789
thorax -5.18227 1.79622 -2.29322
lowerneck -15.0293 -3.57455 -0.98886
upperneck 23.2792 -4.71193 -0.215263
head 9.88945 -2.29107 -0.514439
rclavicle -2.60439e-014 -1.98785e-015
rhumerus -20.4547 -11.2005 -81.0883
rradius 31.7829
rwrist -0.943225
rhand -19.8051 22.3499
rfingers 7.12502
rthumb 6.52794 -7.52946
lclavicle -2.60439e-014 -1.98785e-015
lhumerus -37.9785 10.0531 79.5841
lradius 19.6497
lwrist -0.241974
lhand -25.4726 22.6468
lfingers 7.12502
lthumb 1.05508 52.6239
rfemur 11.1787 6.79851 31.5209
rtibia 29.2153
rfoot -12.691 -2.02481
rtoes -9.13947
lfemur -24.3099 -1.38094 -14.4839
ltibia 23.2002
lfoot -0.199311 -4.23367
ltoes -13.4086
98
root 0.620953 17.9499 -11.2384 -1.06622 -4.75464 -5.50465
lowerback 9.42287 2.31009 6.03211
upperback -0.0972488 3.82312 1.6172
thorax -5.1083 1.75004 -2.2067
lowerneck -15.2676 -3.53117 -1.1
upperneck 23.5708 -4.64803 -0.122636
head 10.0445 -2.25723 -0.464746
rclavicle -1.34304e-014 -2.04748e-014
rhumerus -20.7664 -11.2289 -81.0589
rradius 31.8988
rwrist -0.866672
rhand -19.7698 22.5346
rfingers 7.12502
rthumb 6.56201 -7.34374
lclavicle -1.34304e-014 -2.04748e-014
lhumerus -38.1085 10.2972 79.4988
lradius 19.6345
lwrist -0.237874
lhand -25.7688 22.4803
lfingers 7.12502
lthumb 0.769085 52.4587
rfemur 11.2093 6.50318 31.0193
rtibia 30.6617
rfoot -11.5789 -1.51384
rtoes -9.49269
lfemur -23.7821 -1.47633 -15.0823
ltibia 23.7412
lfoot -1.01695 -4.22893
ltoes -12.9023
99
root 0.640052 17.966 -11.0257 -1.29514 -4.73465 -5.38425
lowerback 9.56484 2.26133 5.89425
upperback -0.160525 3.75738 1.61084
thorax -5.26826 1.7148 -2.13782
lowerneck -15.325 -3.54923 -1.08863
upperneck 23.8392 -4.65174 -0.234869
head 10.1487 -2.26933 -0.511475
rclavicle -4.22231e-014 -1.31198e-014
rhumerus -21.3492 -10.9861 -81.0608
rradius 32.1438
rwrist -0.909486
rhand -19.8485 22.627
rfingers 7.12502
rthumb 6.48612 -7.25368
lclavicle -4.22231e-014 -1.31198e-014
lhumerus -38.393 10.7156 79.2306
lradius 19.4945
lwrist -0.246873
lhand -26.0384 20.9502
lfingers 7.12502
lthumb 0.50862 50.9293
rfemur 11.0569 6.26771 30.7314
rtibia 32.2958
rfoot -10.0704 -0.971256
rtoes -9.47037
lfemur -23.0838 -1.49811 -15.4313
ltibia 23.9817
lfoot -1.52624 -3.94008
ltoes -11.8421
100
root 0.658977 17.9856 -10.8109 -1.48667 -4.85064 -5.12483
lowerback 9.60668 2.28796 5.6089
upperback -0.262896 3.76791 1.58012
thorax -5.41455 1.72114 -2.0179
lowerneck -14.9384 -3.57061 -1.1302
upperneck 23.8868 -4.65322 -0.325714
head 10.0906 -2.28659 -0.528907
rclavicle -4.86712e-015 1.49089e-015
rhumerus -21.8966 -10.8209 -81.0419
rradius 32.2334
rwrist -1.00264
rhand -19.6934 22.576
rfingers 7.12502
rthumb 6.63583 -7.30004
lclavicle -4.86712e-015 1.49089e-015
lhumerus -38.7471 10.9163 79.0359
lradius 19.4742
lwrist -0.467345
lhand -25.9541 20.5798
lfingers 7.12502
lthumb 0.590067 50.5588
rfemur 10.6657 6.18013 30.2737
rtibia 34.0991
rfoot -8.18694 -0.433777
rtoes -8.27301
lfemur -22.2814 -1.403 -15.9298
ltibia 24.1992
lfoot -1.71223 -3.2426
ltoes -10.8472
101
root 0.679272 17.9884 -10.5942 -1.63419 -4.87427 -4.78924
lowerback 9.3427 2.30777 5.2749
upperback -0.201272 3.73304 1.53672
thorax -5.22055 1.71981 -1.85781
lowerneck -14.6444 -3.55186 -1.14386
upperneck 23.7253 -4.61227 -0.373897
head 9.97536 -2.27716 -0.529379
rclavicle -1.87727e-014 2.98177e-016
rhumerus -22.1481 -11.0142 -80.9664
rradius 32.1822
rwrist -0.957528
rhand -19.1227 22.979
rfingers 7.12502
rthumb 7.18673 -6.879
lclavicle -1.87727e-014 2.98177e-016
lhumerus -38.6449 11.5396 78.6675
lradius 19.34
lwrist -1.59147
lhand -25.0057 22.7747
lfingers 7.12502
lthumb 1.50602 52.7491
rfemur 10.1543 5.90702 29.6667
rtibia 35.9567
rfoot -5.8626 0.0797316
rtoes -7.31943
lfemur -21.6777 -1.21586 -16.5532
ltibia 24.5815
lfoot -1.93302 -2.99326
ltoes -9.12871
102
root 0.697056 18.001 -10.3781 -1.8687 -4.6588 -4.05412
lowerback 9.1882 2.29272 4.60159
upperback -0.107087 3.61438 1.31518
thorax -5.06755 1.6822 -1.68868
lowerneck -14.6653 -3.5341 -1.1896
upperneck 23.6976 -4.61293 -0.226219
head 9.97475 -2.26435 -0.470464
rclavicle 4.93545e-015 1.85864e-014
rhumerus -22.3679 -11.3758 -80.9229
rradius 31.9461
rwrist -0.974599
rhand -18.8463 23.6006
rfingers 7.12502
rthumb 7.45354 -6.2481
lclavicle 4.93545e-015 1.85864e-014
lhumerus -38.3812 11.8708 78.4276
lradius 19.3796
lwrist -2.63033
lhand -22.9906 26.3655
lfingers 7.12502
lthumb 3.45214 56.3172
rfemur 9.49368 5.38886 28.5652
rtibia 38.0162
rfoot -2.9207 0.691325
rtoes -5.52399
lfemur -21.0206 -1.16446 -17.6549
ltibia 25.0611
lfoot -2.444 -3.16098
ltoes -6.70318
103
root 0.708672 18.0322 -10.1697 -2.05474 -4.50212 -3.56305
lowerback 9.22532 2.38477 4.11798
upperback -0.0597552 3.67378 1.09361
thorax -5.04964 1.7223 -1.65796
lowerneck -15.1743 -3.60359 -1.06924
upperneck 24.0697 -4.78268 -0.0709485
head 10.2077 -2.30771 -0.474545
rclavicle -3.95799e-014 2.88238e-015
rhumerus -22.7236 -12.1542 -80.8555
rradius 31.8779
rwrist -0.71738
rhand -19.7363 23.0517
rfingers 7.12502
rthumb 6.59438 -6.82567
lclavicle -3.95799e-014 2.88238e-015
lhumerus -38.1197 11.0908 78.7283
lradius 19.1169
lwrist -0.635222
lhand -25.1555 23.2582
lfingers 7.12502
lthumb 1.36143 53.2336
rfemur 8.58225 4.89728 27.7368
rtibia 40.2232
rfoot 0.48993 1.17442
rtoes -4.29301
lfemur -20.2967 -0.975056 -18.4587
ltibia 25.5618
lfoot -3.12644 -3.16017
ltoes -4.75331
104
root 0.724478 18.0556 -9.97294 -2.27759 -4.32058 -3.05316
lowerback 9.54804 2.39782 3.61955
upperback -0.121318 3.64457 0.896443
thorax -5.31461 1.71122 -1.60024
lowerneck -15.4548 -3.67658 -1.10788
upperneck 24.351 -4.93773 0.152928
head 10.3722 -2.35162 -0.420198
rclavicle -2.88688e-014 -1.49089e-014
rhumerus -23.3589 -12.6333 -80.8224
rradius 32.0584
rwrist -0.631167
rhand -19.6738 22.8298
rfingers 7.12502
rthumb 6.65473 -7.04559
lclavicle -2.88688e-014 -1.49089e-014
lhumerus -38.0125 10.948 78.6204
lradius 18.9267
lwrist -0.123961
lhand -25.8937 21.7709
lfingers 7.12502
lthumb 0.648441 51.7496
rfemur 7.57301 4.36262 26.8512
rtibia 42.5737
rfoot 3.28547 1.59661
rtoes -3.32996
lfemur -19.5588 -1.00894 -19.2357
ltibia 25.9736
lfoot -3.71705 -2.87023
ltoes -3.16288
